<?xml version="1.0"?>
<svg xmlns="http://www.w3.org/2000/svg" xmlns:xlink="http://www.w3.org/1999/xlink" xmlns:svgjs="http://svgjs.com/svgjs" version="1.1" width="512" height="512" x="0" y="0" viewBox="0 0 512 512" style="enable-background:new 0 0 512 512" xml:space="preserve" class=""><g>
<path xmlns="http://www.w3.org/2000/svg" style="" d="M444.997,90.381c1.302-5.45,2.065-11.108,2.065-16.957C447.063,32.872,413.904,0,373.005,0  c-32.725,0-64.26,17.556-74.066,46.731c-11.012-6.43-19.959-6.673-33.662-6.673c-35.059,0-64.364,24.177-72.036,56.624  l2.013,163.658h211.413h13.468c48.336,0,87.526-38.851,87.526-86.78C507.661,134.205,481.211,101.012,444.997,90.381z" fill="#afb6bb" data-original="#afb6bb" class=""/>
<path xmlns="http://www.w3.org/2000/svg" style="" d="M67.003,168.483c-1.302-5.45-2.065-11.108-2.065-16.957c0-40.552,33.159-73.424,74.058-73.424  c32.716,0,64.26,17.556,74.058,46.731c11.012-6.43,19.959-6.673,33.662-6.673c40.917-0.009,78.709,32.204,78.709,72.756  c40.908,0,69.424,33.54,69.424,74.092s-33.159,73.433-74.058,73.433h-20.202H105.333H91.865c-48.336,0-87.526-38.851-87.526-86.78  C4.339,212.306,30.781,179.113,67.003,168.483z" fill="#e7eced" data-original="#e7eced" class=""/>
<g xmlns="http://www.w3.org/2000/svg">
	<path style="" d="M91.119,468.61c-4.79,0-8.678-3.879-8.678-8.678v-86.78c0-4.799,3.888-8.678,8.678-8.678   s8.678,3.879,8.678,8.678v86.78C99.797,464.731,95.909,468.61,91.119,468.61z" fill="#c6e2f7" data-original="#c6e2f7" class=""/>
	<path style="" d="M134.508,425.22h-86.78c-4.79,0-8.678-3.879-8.678-8.678c0-4.799,3.888-8.678,8.678-8.678h86.78   c4.79,0,8.678,3.879,8.678,8.678C143.186,421.341,139.299,425.22,134.508,425.22z" fill="#c6e2f7" data-original="#c6e2f7" class=""/>
	<path style="" d="M65.085,451.254c-2.222,0-4.443-0.85-6.135-2.543c-3.393-3.393-3.393-8.878,0-12.271l52.068-52.068   c3.384-3.393,8.886-3.393,12.271,0c3.393,3.393,3.393,8.878,0,12.271L71.22,448.712C69.528,450.404,67.306,451.254,65.085,451.254z   " fill="#c6e2f7" data-original="#c6e2f7" class=""/>
	<path style="" d="M117.153,451.254c-2.222,0-4.443-0.85-6.135-2.543l-52.068-52.068   c-3.393-3.393-3.393-8.878,0-12.271c3.384-3.393,8.886-3.393,12.271,0l52.068,52.068c3.393,3.393,3.393,8.878,0,12.271   C121.596,450.404,119.374,451.254,117.153,451.254z" fill="#c6e2f7" data-original="#c6e2f7" class=""/>
</g>
<g xmlns="http://www.w3.org/2000/svg">
	<path style="" d="M203.932,512c-4.79,0-8.678-3.879-8.678-8.678v-86.78c0-4.799,3.888-8.678,8.678-8.678   s8.678,3.879,8.678,8.678v86.78C212.61,508.121,208.722,512,203.932,512z" fill="#366db6" data-original="#366db6" class=""/>
	<path style="" d="M247.322,468.61h-86.78c-4.79,0-8.678-3.879-8.678-8.678c0-4.799,3.888-8.678,8.678-8.678h86.78   c4.79,0,8.678,3.879,8.678,8.678C256,464.731,252.112,468.61,247.322,468.61z" fill="#366db6" data-original="#366db6" class=""/>
	<path style="" d="M177.898,494.644c-2.222,0-4.443-0.85-6.135-2.543c-3.393-3.393-3.393-8.878,0-12.271l52.068-52.068   c3.384-3.393,8.886-3.393,12.271,0c3.393,3.393,3.393,8.878,0,12.271l-52.068,52.068   C182.341,493.794,180.12,494.644,177.898,494.644z" fill="#366db6" data-original="#366db6" class=""/>
	<path style="" d="M229.966,494.644c-2.222,0-4.443-0.85-6.135-2.543l-52.068-52.068   c-3.393-3.393-3.393-8.878,0-12.271c3.384-3.393,8.886-3.393,12.271,0l52.068,52.068c3.393,3.393,3.393,8.878,0,12.271   C234.409,493.794,232.188,494.644,229.966,494.644z" fill="#366db6" data-original="#366db6" class=""/>
	<path style="" d="M429.559,512c-4.79,0-8.678-3.879-8.678-8.678v-86.78c0-4.799,3.888-8.678,8.678-8.678   s8.678,3.879,8.678,8.678v86.78C438.237,508.121,434.35,512,429.559,512z" fill="#366db6" data-original="#366db6" class=""/>
	<path style="" d="M472.949,468.61h-86.78c-4.79,0-8.678-3.879-8.678-8.678c0-4.799,3.888-8.678,8.678-8.678h86.78   c4.79,0,8.678,3.879,8.678,8.678C481.627,464.731,477.739,468.61,472.949,468.61z" fill="#366db6" data-original="#366db6" class=""/>
	<path style="" d="M403.525,494.644c-2.222,0-4.443-0.85-6.135-2.543c-3.393-3.393-3.393-8.878,0-12.271l52.068-52.068   c3.384-3.393,8.886-3.393,12.271,0c3.393,3.393,3.393,8.878,0,12.271l-52.068,52.068   C407.969,493.794,405.747,494.644,403.525,494.644z" fill="#366db6" data-original="#366db6" class=""/>
	<path style="" d="M455.593,494.644c-2.222,0-4.443-0.85-6.135-2.543l-52.068-52.068   c-3.393-3.393-3.393-8.878,0-12.271c3.384-3.393,8.886-3.393,12.271,0l52.068,52.068c3.393,3.393,3.393,8.878,0,12.271   C460.036,493.794,457.815,494.644,455.593,494.644z" fill="#366db6" data-original="#366db6" class=""/>
</g>
<g xmlns="http://www.w3.org/2000/svg">
	<path style="" d="M316.746,468.61c-4.79,0-8.678-3.879-8.678-8.678v-86.78c0-4.799,3.888-8.678,8.678-8.678   s8.678,3.879,8.678,8.678v86.78C325.424,464.731,321.536,468.61,316.746,468.61z" fill="#c6e2f7" data-original="#c6e2f7" class=""/>
	<path style="" d="M360.136,425.22h-86.78c-4.79,0-8.678-3.879-8.678-8.678c0-4.799,3.888-8.678,8.678-8.678h86.78   c4.79,0,8.678,3.879,8.678,8.678C368.814,421.341,364.926,425.22,360.136,425.22z" fill="#c6e2f7" data-original="#c6e2f7" class=""/>
	<path style="" d="M290.712,451.254c-2.222,0-4.443-0.85-6.135-2.543c-3.393-3.393-3.393-8.878,0-12.271l52.068-52.068   c3.384-3.393,8.886-3.393,12.271,0c3.393,3.393,3.393,8.878,0,12.271l-52.068,52.068   C295.155,450.404,292.933,451.254,290.712,451.254z" fill="#c6e2f7" data-original="#c6e2f7" class=""/>
	<path style="" d="M342.78,451.254c-2.222,0-4.443-0.85-6.135-2.543l-52.068-52.068c-3.393-3.393-3.393-8.878,0-12.271   c3.384-3.393,8.886-3.393,12.271,0l52.068,52.068c3.393,3.393,3.393,8.878,0,12.271   C347.223,450.404,345.001,451.254,342.78,451.254z" fill="#c6e2f7" data-original="#c6e2f7" class=""/>
</g>
<g xmlns="http://www.w3.org/2000/svg">
</g>
<g xmlns="http://www.w3.org/2000/svg">
</g>
<g xmlns="http://www.w3.org/2000/svg">
</g>
<g xmlns="http://www.w3.org/2000/svg">
</g>
<g xmlns="http://www.w3.org/2000/svg">
</g>
<g xmlns="http://www.w3.org/2000/svg">
</g>
<g xmlns="http://www.w3.org/2000/svg">
</g>
<g xmlns="http://www.w3.org/2000/svg">
</g>
<g xmlns="http://www.w3.org/2000/svg">
</g>
<g xmlns="http://www.w3.org/2000/svg">
</g>
<g xmlns="http://www.w3.org/2000/svg">
</g>
<g xmlns="http://www.w3.org/2000/svg">
</g>
<g xmlns="http://www.w3.org/2000/svg">
</g>
<g xmlns="http://www.w3.org/2000/svg">
</g>
<g xmlns="http://www.w3.org/2000/svg">
</g>
</g></svg>
